<svg xmlns="http://www.w3.org/2000/svg" viewBox="0 0 210 210" fill="none" shape-rendering="auto"><metadata xmlns:rdf="http://www.w3.org/1999/02/22-rdf-syntax-ns#" xmlns:xsi="http://www.w3.org/2001/XMLSchema-instance" xmlns:dc="http://purl.org/dc/elements/1.1/" xmlns:dcterms="http://purl.org/dc/terms/"><rdf:RDF><rdf:Description><dc:title>Face Generator</dc:title><dc:creator>The Visual Team</dc:creator><dc:source xsi:type="dcterms:URI">https://www.figma.com/community/file/986078800058673824</dc:source><dcterms:license xsi:type="dcterms:URI">https://creativecommons.org/licenses/by/4.0/</dcterms:license><dc:rights>Remix of „Face Generator” (https://www.figma.com/community/file/986078800058673824) by „The Visual Team”, licensed under „CC BY 4.0” (https://creativecommons.org/licenses/by/4.0/)</dc:rights></rdf:Description></rdf:RDF></metadata><mask id="viewboxMask"><rect width="210" height="210" rx="0" ry="0" x="0" y="0" fill="#fff" /></mask><g mask="url(#viewboxMask)"><rect fill="#da9969" width="210" height="210" x="0" y="0" /><g transform="translate(86.8 138.9) scale(.71856)"><path fill-rule="evenodd" clip-rule="evenodd" d="M-1.5 27.9-6 31.4a3.2 3.2 0 1 1-3.7-5.2l4-3.1 2.3-1.9c2.3-1.7 4.8-3.6 7.8-5.2a52 52 0 0 1 25.8-5.7 52.5 52.5 0 0 1 38.2 16.5 3.2 3.2 0 1 1-4.8 4 46.3 46.3 0 0 0-33.4-14c-11 0-17.7 2-22.8 4.8a48 48 0 0 0-6.9 4.6l-2 1.7Z" fill="#000"/></g><g transform="translate(2 11) scale(.71856)"><circle cx="202.2" cy="92.6" r="11.6" fill="#161616"/><circle cx="89.2" cy="92.6" r="11.6" fill="#161616"/><path d="M177 68.2c4.4-3 11-9.2 24.1-9.2 11.1 0 20.4 6.8 22.1 9.2M64 68.2c4.4-3 11-9.2 24.1-9.2 11.1 0 20.4 6.8 22.1 9.2" stroke="#000" stroke-width="4.6" stroke-linecap="round"/><path d="M186 81c.9 2.5 4 7.8 9.2 9.2M73 81c.9 2.5 4 7.8 9.2 9.2" stroke="#000" stroke-width="4.6" stroke-linecap="round" stroke-linejoin="round"/></g><g transform="translate(15 89.2) scale(.71856)"><g fill="#000" fill-opacity=".4"><rect x="33" y="38.5" width="12.9" height="12.9" rx="6.4"/><rect x="57.1" y="24" width="12.9" height="14.5" rx="6.4"/><rect x="76.4" y="38.5" width="12.9" height="12.9" rx="6.4"/><rect x="166.4" y="38.5" width="12.9" height="12.9" rx="6.4"/><rect x="190.5" y="24" width="12.9" height="14.5" rx="6.4"/><rect x="209.8" y="38.5" width="12.9" height="12.9" rx="6.4"/></g></g><g transform="translate(80.3 79.8) scale(.71856)"><path d="M18.6 38.3A10 10 0 0 0 29 45a10 10 0 0 0 19.4 0h.9a10 10 0 0 0 9.5-6.7 10 10 0 0 1-10.4 13.4 10 10 0 0 1-19.4 0H28a10 10 0 0 1-9.5-13.4Z" fill="#000" fill-opacity=".2"/></g></g></svg>